<svg width="270" height="60" viewBox="0 0 270 60" fill="none" xmlns="http://www.w3.org/2000/svg">
<g clip-path="url(#clip0_0_595)">
<path d="M222.949 7.71432C222.661 7.8478 222.339 8.02241 222.273 8.33307C222.231 8.53791 222.315 8.74581 222.402 8.93635C224.22 12.9351 227.603 15.9864 229.996 19.6698C231.327 21.719 232.596 23.8012 233.95 25.838C234.705 26.974 235.488 28.1945 235.506 29.5584C235.527 31.1062 234.562 32.4767 233.593 33.6845C229.972 38.2026 225.705 42.1946 222.334 46.9031C222.122 47.1997 221.908 47.5105 221.837 47.8681C221.638 48.8632 222.578 49.7801 223.308 50.3096C224.265 51.0042 225.111 51.7039 225.998 52.5177C228.018 54.3712 230.135 56.1167 232.339 57.7468C232.884 58.1491 233.465 58.5575 234.137 58.6357C235.198 58.7592 236.159 58.0394 236.937 57.3084C237.927 56.3787 238.833 55.3643 239.737 54.3513L246.838 46.3976C248.386 44.6639 249.936 42.9287 251.364 41.0959C252.721 39.3563 253.965 37.5327 255.091 35.636C256.06 34.0029 257.372 32.2999 257.5 30.345C257.655 27.9893 256.264 25.8422 254.931 23.8937L250.744 17.7726C250.143 16.8939 249.592 15.9422 248.832 15.1891C248.271 14.6327 247.752 14.1968 247.325 13.5121C246.108 11.5581 244.969 9.58674 243.632 7.70624C242.964 6.76709 242.277 5.84155 241.582 4.92256C241.187 4.39932 239.478 2.7942 239.478 2.17932C239.194 1.81182 238.889 1.42803 238.458 1.25659C237.487 0.870805 236.295 1.53174 235.433 1.93088L231.272 3.85862L222.949 7.71432Z" fill="#46E892"/>
</g>
<g clip-path="url(#clip1_0_595)">
<path d="M179.885 28.9958C179.406 27.9602 178.718 26.9978 178.096 26.0441C175.556 22.1482 172.593 18.5561 169.759 14.8758C168.354 13.0517 166.981 11.2017 165.71 9.28123C165.076 8.32249 164.467 7.34646 163.894 6.34958C163.401 5.48999 162.961 4.5595 162.233 3.86556C161.506 3.17247 160.55 2.81862 159.555 3.0933C158.372 3.42029 157.233 4.15184 156.128 4.6781C153.752 5.80957 151.363 6.91548 148.975 8.02332C147.782 8.57708 146.564 9.08594 145.395 9.68933C145.031 9.87721 144.904 10.4081 145.117 10.7489C146.346 12.7172 147.571 14.693 148.859 16.6236C149.609 17.7478 150.404 18.8378 151.225 19.908C151.851 20.8289 152.486 21.7429 153.132 22.65C153.859 23.6739 154.597 24.6909 155.338 25.7047C156.031 26.6522 156.83 27.5784 157.403 28.6045C158.017 29.7018 157.405 30.4706 156.729 31.3602C155.928 32.4146 155.127 33.4683 154.325 34.5224C152.722 36.6305 151.12 38.7394 149.517 40.8468C148.715 41.9008 147.91 42.9524 147.106 44.0051L145.937 45.5363C145.568 46.0191 145.097 46.5025 144.863 47.0688C144.362 48.2787 145.367 48.9581 146.205 49.5976C147.272 50.4122 148.301 51.2834 149.347 52.1248C151.379 53.7597 153.405 55.4023 155.425 57.0527C156.327 57.7899 157.202 58.3684 158.348 57.7164C159.387 57.1256 160.318 56.199 161.168 55.3696C162.94 53.6384 164.591 51.7707 166.209 49.8954C169.468 46.1155 172.541 42.1693 175.564 38.1986C176.321 37.2022 177.077 36.2038 177.829 35.2035C178.53 34.2734 179.366 33.3517 179.875 32.2973C180.406 31.196 180.396 30.1012 179.885 28.9958ZM177.68 32.5423C177.007 33.4883 176.31 34.4183 175.623 35.354C171.29 41.2557 166.838 47.0489 161.821 52.3916C160.589 53.7034 159.323 54.9972 157.873 56.0628C157.713 56.1808 157.531 56.3012 157.333 56.2858C157.166 56.2729 157.023 56.1658 156.891 56.0629C153.618 53.5207 150.234 51.0741 147.06 48.4095C146.873 48.2531 146.613 48.0677 146.463 47.8717C146.315 47.6787 146.344 47.6589 146.492 47.4637C150.283 42.4658 154.154 37.513 158.116 32.6674C159.033 31.5459 159.769 30.0899 159.408 28.687C159.193 27.8491 158.617 27.1585 158.063 26.494C155.962 23.9736 153.942 21.3866 152.007 18.737C151.585 18.1589 146.661 10.8196 146.858 10.7327C148.856 9.85368 150.813 8.86175 152.791 7.94146C155.049 6.89088 157.291 5.72696 159.606 4.80926C160.513 4.45015 161.036 4.94611 161.528 5.68475C162.086 6.52124 162.533 7.43443 163.055 8.2937C164.196 10.1699 165.454 11.9724 166.763 13.735C169.388 17.2721 172.223 20.6503 174.799 24.2243C175.432 25.1016 176.049 25.9903 176.641 26.8948C177.241 27.8092 177.918 28.7651 178.353 29.7713C178.808 30.8212 178.289 31.6857 177.68 32.5423Z" fill="#7B75FF"/>
</g>
<g clip-path="url(#clip2_0_595)">
<path d="M105.805 28.6326C105.369 27.6911 104.744 26.8162 104.178 25.9492C101.869 22.4075 99.1755 19.1419 96.599 15.7961C95.3222 14.1379 94.0735 12.4561 92.9183 10.7102C92.3415 9.83863 91.7884 8.95132 91.2677 8.04507C90.8189 7.26363 90.4187 6.41773 89.7569 5.78687C89.0959 5.15679 88.2272 4.83511 87.3231 5.08482C86.2469 5.38209 85.2122 6.04712 84.2075 6.52554C82.0474 7.55416 79.875 8.55953 77.7047 9.56666C76.6197 10.0701 75.5128 10.5327 74.4498 11.0812C74.1187 11.252 74.0036 11.7346 74.1972 12.0445C75.3148 13.8338 76.4278 15.63 77.599 17.3851C78.2811 18.4071 79.0032 19.398 79.75 20.371C80.3187 21.2081 80.8965 22.039 81.4832 22.8636C82.1447 23.7945 82.8153 24.719 83.4895 25.6407C84.1195 26.502 84.845 27.344 85.3667 28.2768C85.9248 29.2744 85.3683 29.9733 84.7539 30.782C84.0259 31.7406 83.2969 32.6985 82.5684 33.6567C81.1112 35.5732 79.655 37.4904 78.1971 39.4062C77.468 40.3644 76.736 41.3204 76.0054 42.2774L74.9427 43.6694C74.6075 44.1083 74.1794 44.5477 73.9663 45.0626C73.5112 46.1625 74.4249 46.7801 75.1864 47.3615C76.1567 48.102 77.0919 48.894 78.043 49.6589C79.8904 51.1452 81.7321 52.6385 83.568 54.1388C84.3882 54.809 85.1832 55.3349 86.2256 54.7421C87.1699 54.2051 88.0166 53.3627 88.7887 52.6087C90.4 51.0349 91.9012 49.337 93.3715 47.6322C96.3348 44.1959 99.1286 40.6085 101.876 36.9987C102.565 36.0929 103.251 35.1853 103.936 34.2759C104.572 33.4303 105.333 32.5924 105.795 31.6339C106.279 30.6328 106.269 29.6375 105.805 28.6326ZM103.8 31.8566C103.188 32.7167 102.555 33.5621 101.93 34.4128C97.9911 39.7779 93.944 45.0445 89.3827 49.9014C88.2627 51.094 87.1121 52.2702 85.7937 53.2389C85.6478 53.3461 85.4831 53.4556 85.3028 53.4417C85.1507 53.4299 85.0208 53.3326 84.9005 53.239C81.925 50.9279 78.8488 48.7038 75.9634 46.2814C75.7941 46.1392 75.5575 45.9707 75.4209 45.7924C75.2866 45.617 75.3129 45.599 75.4474 45.4215C78.8935 40.878 82.4128 36.3754 86.0146 31.9704C86.8482 30.9508 87.5177 29.6272 87.1895 28.3518C86.9935 27.5901 86.47 26.9623 85.9664 26.3582C84.0565 24.0669 82.2204 21.7151 80.4609 19.3064C80.0769 18.7808 75.601 12.1087 75.7801 12.0297C77.5968 11.2306 79.3757 10.3289 81.1737 9.49224C83.2263 8.53716 85.2646 7.47906 87.3695 6.64478C88.1934 6.31832 88.6687 6.76919 89.1164 7.44068C89.6235 8.20113 90.0296 9.0313 90.5047 9.81246C91.542 11.5181 92.6856 13.1567 93.8752 14.7591C96.2621 17.9747 98.8389 21.0458 101.181 24.2948C101.756 25.0923 102.317 25.9002 102.856 26.7225C103.401 27.5539 104.016 28.4228 104.412 29.3376C104.825 30.292 104.353 31.0779 103.8 31.8566Z" fill="#EA9404"/>
</g>
<g clip-path="url(#clip3_0_595)">
<path d="M36.7241 29.2693C36.3323 28.422 35.7694 27.6346 35.2606 26.8543C33.1823 23.6667 30.758 20.7278 28.4391 17.7165C27.29 16.2241 26.1661 14.7105 25.1265 13.1392C24.6074 12.3548 24.1096 11.5562 23.6409 10.7406C23.237 10.0373 22.8768 9.27596 22.2812 8.70818C21.6863 8.14111 20.9045 7.8516 20.0908 8.07634C19.1222 8.34388 18.191 8.94241 17.2868 9.37299C15.3426 10.2987 13.3875 11.2036 11.4342 12.11C10.4578 12.5631 9.46154 12.9794 8.50485 13.4731C8.20681 13.6268 8.10328 14.0612 8.27747 14.34C9.28329 15.9505 10.285 17.567 11.3391 19.1466C11.953 20.0664 12.6029 20.9582 13.275 21.8339C13.7869 22.5873 14.3069 23.3351 14.8349 24.0773C15.4303 24.915 16.0337 25.7471 16.6405 26.5766C17.2075 27.3518 17.8605 28.1096 18.3301 28.9491C18.8323 29.8469 18.3315 30.476 17.7785 31.2038C17.1233 32.0665 16.4672 32.9286 15.8115 33.791C14.5001 35.5159 13.1895 37.2413 11.8774 38.9656C11.2212 39.828 10.5624 40.6883 9.90486 41.5497L8.94843 42.8025C8.64679 43.1974 8.26148 43.5929 8.0697 44.0563C7.66013 45.0462 8.48243 45.6021 9.16781 46.1253C10.041 46.7918 10.8827 47.5046 11.7387 48.193C13.4013 49.5306 15.0589 50.8746 16.7112 52.2249C17.4494 52.8281 18.1649 53.3014 19.1031 52.7679C19.953 52.2846 20.715 51.5265 21.4098 50.8479C22.86 49.4314 24.2111 47.9033 25.5344 46.369C28.2013 43.2764 30.7158 40.0476 33.1885 36.7988C33.8085 35.9836 34.4263 35.1668 35.042 34.3483C35.6151 33.5873 36.2994 32.8332 36.7159 31.9705C37.1507 31.0695 37.1422 30.1737 36.7241 29.2693ZM34.9198 32.1709C34.3693 32.945 33.7992 33.7059 33.2371 34.4715C29.692 39.3001 26.0496 44.04 21.9445 48.4113C20.9364 49.4846 19.9009 50.5432 18.7143 51.415C18.583 51.5115 18.4348 51.6101 18.2725 51.5975C18.1356 51.5869 18.0187 51.4993 17.9105 51.4151C15.2325 49.3351 12.464 47.3334 9.86706 45.1533C9.71466 45.0253 9.50179 44.8736 9.37883 44.7132C9.25798 44.5553 9.28162 44.5391 9.40265 44.3794C12.5041 40.2902 15.6715 36.2379 18.9131 32.2733C19.6634 31.3558 20.2659 30.1645 19.9705 29.0166C19.7941 28.3311 19.323 27.766 18.8698 27.2223C17.1508 25.1602 15.4983 23.0436 13.9148 20.8758C13.5692 20.4027 9.5409 14.3979 9.70209 14.3268C11.3371 13.6076 12.9381 12.796 14.5564 12.043C16.4037 11.1834 18.2381 10.2312 20.1326 9.4803C20.874 9.18648 21.3018 9.59228 21.7048 10.1966C22.1611 10.881 22.5267 11.6282 22.9542 12.3312C23.8878 13.8663 24.917 15.341 25.9877 16.7832C28.1359 19.6772 30.455 22.4412 32.5631 25.3653C33.0806 26.0831 33.5852 26.8102 34.0701 27.5503C34.5606 28.2985 35.1143 29.0805 35.4707 29.9038C35.8427 30.7628 35.4181 31.4701 34.9198 32.1709Z" fill="#F64749"/>
</g>
<defs>
<clipPath id="clip0_0_595">
<rect width="60" height="60" fill="white" transform="translate(210)"/>
</clipPath>
<clipPath id="clip1_0_595">
<rect width="55" height="55" fill="white" transform="translate(135 3)"/>
</clipPath>
<clipPath id="clip2_0_595">
<rect width="50" height="50" fill="white" transform="translate(65 5)"/>
</clipPath>
<clipPath id="clip3_0_595">
<rect width="45" height="45" fill="white" transform="translate(0 8)"/>
</clipPath>
</defs>
</svg>
