<svg width="264" height="264" viewBox="0 0 264 264" fill="none" xmlns="http://www.w3.org/2000/svg">
<g clip-path="url(#clip0_0_588)">
<path d="M257.051 126.994C276.614 91.971 252.661 49.9084 212.769 45.9355L198.212 44.4851C187.595 43.4265 178.112 38.8266 170.233 29.9816C142.809 -0.79867 91.7446 6.80216 74.9348 43.7817C70.8407 52.7877 63.4374 59.992 54.0891 64.0685L33.5811 73.0094C0.891009 87.2613 -10.1924 126.807 10.4564 155.088L23.4687 172.91C26.2948 176.781 28.3578 181.06 29.601 185.628L36.0628 209.384C44.9146 241.928 81.8271 259.514 114.046 245.836L116.805 244.665C125.004 241.184 134.332 240.34 143.067 242.284L185.373 251.704C226.588 260.882 262.918 225.112 253.714 185.795L248.36 162.926C246.192 153.669 247.574 143.961 252.249 135.592L257.051 126.994Z" fill="#F64749"/>
<g clip-path="url(#clip1_0_588)">
<path d="M138.686 141.014C136.695 142.341 134.384 143.043 132 143.043C129.617 143.043 127.305 142.341 125.314 141.014L92.5327 119.159C92.3517 119.038 92.1741 118.912 92 118.782V154.594C92 158.7 95.332 161.958 99.3645 161.958H164.635C168.741 161.958 172 158.626 172 154.594V118.781C171.825 118.913 171.647 119.039 171.466 119.16L138.686 141.014Z" fill="white"/>
<path d="M95.1328 115.259L127.915 137.114C129.155 137.942 130.578 138.355 132 138.355C133.422 138.355 134.845 137.942 136.085 137.114L168.867 115.259C170.829 113.952 172 111.764 172 109.404C172 105.344 168.697 102.042 164.638 102.042H99.362C95.3027 102.042 92 105.344 92 109.407C91.9988 110.566 92.2842 111.706 92.8309 112.727C93.3775 113.748 94.1683 114.618 95.1328 115.259Z" fill="white"/>
</g>
</g>
<defs>
<clipPath id="clip0_0_588">
<rect width="264" height="264" fill="white"/>
</clipPath>
<clipPath id="clip1_0_588">
<rect width="80" height="80" fill="white" transform="translate(92 92)"/>
</clipPath>
</defs>
</svg>
